<?xml version="1.0" encoding="UTF-8"?>
<svg id="Layer_2" data-name="Layer 2" xmlns="http://www.w3.org/2000/svg" viewBox="0 0 138.58 139.93">
  <defs>
    <style>
      .cls-1 {
        fill: #f9fdfc;
      }

      .cls-2 {
        fill: #053342;
      }

      .cls-3 {
        fill: #f5faf3;
      }

      .cls-4 {
        fill: #6acd04;
      }

      .cls-5 {
        fill: #143546;
      }

      .cls-6 {
        fill: #11860e;
      }

      .cls-7 {
        fill: #063546;
      }

      .cls-8 {
        fill: #0a9a01;
      }

      .cls-9 {
        fill: #169a09;
      }

      .cls-10 {
        fill: #9add08;
      }

      .cls-11 {
        fill: #61c806;
      }

      .cls-12 {
        fill: #56c202;
      }

      .cls-13 {
        fill: #4cbf04;
      }
    </style>
  </defs>
  <g id="Layer_1-2" data-name="Layer 1">
    <g>
      <path class="cls-2" d="M29.84,114.57c-.01-.12-.01-.24-.02-.37,0,.13,0,.25,.01,.36-.01,.09-.01,.17-.02,.26,.01-.09,.02-.17,.03-.25Z"/>
      <path class="cls-7" d="M136.64,55.47c-2.22-9.38-5.92-18.09-11.82-25.78-.2-.46-.4-.91-.6-1.37-.21-.18-.41-.36-.6-.55-.1-.09-.19-.19-.28-.29,0-.01-.01-.01-.01-.01-.18-.2-.34-.41-.5-.63-.23-.33-.44-.68-.6-1.07-2.49-2.65-4.98-5.3-7.47-7.94-.24-.06-.49-.12-.74-.18-.91-.94-1.83-1.89-2.74-2.84-2.09-1.08-3.65-2.97-5.89-3.83-.09-.35-.31-.5-.68-.42-.75,.2-1.29,.05-1.4-.84-4.93-2.97-10.06-5.52-15.54-7.34-.43,.14-.77,.01-1.05-.34-2.01-.24-4.01-.56-5.94-1.22-.32-.05-.64-.11-.96-.16-5.27-.18-10.53-1.06-15.82-.45-1.39,.16-2.78,.37-4.17,.55-.5-.04-1-.08-1.5-.12-.47,.1-.95,.19-1.42,.29-.78,.55-1.69,.46-2.57,.5-1.25,.58-2.58,.88-3.94,1.02-4.21,1.42-8.3,3.12-12.34,4.95h-.03c-.23,.11-.46,.23-.69,.35l-.08,.13-.14-.02c-.54,.37-1.06,.78-1.62,1.12C16.55,20.56,4.88,37.12,1.02,59.09c-1.18,6.69-1.25,13.38-.65,20.11,.03,.33,.06,.67,.09,1,1.47,6.53,3.06,13.02,5.9,19.13,.59,1.27,1.14,2.56,1.71,3.84,1.11,1.6,1.49,.01,2.13-.48-.03-.43,.06-.81,.42-1.09,.18-.72,.33-1.44,.95-1.94,.11-.96,.5-1.8,1.14-2.52,.04-.78,.35-1.45,.87-2.03,.27-1.21,.77-2.33,1.5-3.34,1.19-3.89,2.96-7.55,4.62-11.24,.55-1.23,.63-2.3,.28-3.58-.73-2.71-1.73-5.37-1.73-8.24-.38-.79-.38-1.62-.22-2.46-.48-2.18-.66-4.36-.26-6.57,.04-1.52-.12-3.05,.42-4.51,.02-.66-.05-1.33,.06-1.97,2.41-13.41,9.04-24.23,19.93-32.44,4.33-3.27,9.22-5.45,14.12-7.64,1.6-.09,3.04-.73,4.52-1.26,.21-.57,.5-.8,.98-.22,.5-.06,1.01-.12,1.51-.18,.29-.86,.79-.93,1.46-.4,.71,.17,1.4,.14,2.05-.25h11.01c.82,.37,1.67,.4,2.54,.27,.61-.53,1.12-.51,1.47,.29,.46,.34,.98,.33,1.51,.26,.46-.56,.76-.36,.98,.21,.64,.53,1.4,.56,2.17,.5,.99,.72,2.15,.97,3.33,1.16,3.5,1.64,7.18,2.93,10.43,5.06,3.44,2.25,6.44,5.06,9.64,7.63,.58,1.06,1.43,1.85,2.41,2.54,.63,1.15,1.4,2.19,2.44,3.02,1.02-.02,1.07,.69,1.07,1.44,1.34,2.34,2.68,4.68,4.01,7.02,.08,.99,.53,1.83,1.13,2.59,.35,.97,.69,1.94,1.04,2.91,.82,.23,.83,.78,.58,1.43-.06,1.43,.5,2.73,.87,4.07,.73,.17,1.07,.45,.28,1.03,.04,.33,.08,.65,.12,.97,.03,.83,0,1.66,.09,2.48,1.81,16.24-3.45,29.89-15.13,41.15-2.01,1.94-4.33,3.57-6.51,5.35-.18,.12-.36,.24-.54,.35-.14,.38-.42,.55-.82,.55-2.04,1.08-4.08,2.16-6.12,3.25-.18,.81-.73,.86-1.4,.69h-.07c-.21,.38-.53,.55-.97,.47-.41-.15-.75,.03-1.07,.26-.24,.12-.49,.24-.73,.36-.25,.07-.51,.15-.76,.23-.14,.62-.34,1.07-.99,.38-1.09-.01-2.07,.39-3,.91-3.5,.53-7,1.05-10.5,1.57-1.33,.06-2.67,.11-4,.17-1.33,1.12-2.43,.44-3.51-.43-.67-.07-1.34-.14-2.02-.2-.83,.61-1.57,.8-1.97-.46-.34-.03-.67-.06-1-.1-.77,.78-1.26,.61-1.5-.43-.83-.21-1.66-.42-2.49-.63-.29,.45-.42,.24-.52-.12-.74-.54-1.56-.84-2.47-.86-.75,.8-.91,.23-1.02-.44-.44-.32-.88-.65-1.48-.58-1.43-.95-2.97-1.65-4.61-2.15-3.39,1.44-6.68-.65-6.88-4.36-.21-.43-.51-.73-1.03-.74-2.02-.83-3.36,.79-4.99,1.38-.1,.6-.22,1.17-.97,.5-.66-.06-1.18,.2-1.59,.7-.21,.67-.72,.7-1.29,.62l-.14,.02c-.34,.58-.56,1.46-1.49,.62-.62-.06-1.13,.15-1.51,.64-.2,.82-.76,.84-1.41,.65-1.17,.12-2.19,.59-3.09,1.31-.17,.83-.73,.88-1.41,.69-.67-.09-1.15,.25-1.59,.68-.27,.14-.54,.28-.81,.42-.71,.02-1.31,.28-1.75,.86-.14,.42-.43,.6-.87,.56-1.95,.21-1.95,1.03-.86,2.41,7.23,9.22,15.96,16.66,26.6,21.57,13.93,6.41,28.59,7.89,43.61,5,7.1-1.37,14-3.5,20.1-7.64,.13-.58,.56-.67,1.06-.65,2.4-1.11,4.48-2.66,6.41-4.44,.22-.18,.44-.36,.65-.54,1.9-1.12,3.49-2.6,4.9-4.28-.08-.88,.32-1.28,1.19-1.2,.27-.27,.54-.55,.8-.82-.14-1.19,.44-1.75,1.6-1.77,1.33-1.14,2.49-2.42,3.33-3.97-.07-.86,.06-1.56,1.16-1.53,.21-.28,.42-.56,.64-.85,.63-.72,1.27-1.45,1.9-2.18,.17-.81,.65-1.43,1.25-1.96,.4-1.22,1.08-2.27,1.91-3.23,.85-2.25,1.88-4.4,3.14-6.44,.6-2.36,1.48-4.61,2.47-6.82,.8-3.84,1.6-7.69,2.4-11.53-.22-.67-.24-1.33,.16-1.96,.33-7.15-.05-14.24-1.7-21.23ZM29.81,114.82c.01-.09,.01-.17,.02-.26-.01-.11-.01-.23-.01-.36,.01,.13,.01,.25,.02,.37-.01,.08-.02,.16-.03,.25Zm22.95,10.84c-1.38,.08-3.5-1.87-3.31-3.1,.25-1.73,1.4-2.76,3.12-2.97,1.58-.19,3.01,1.25,3.08,3.2-.2,1.49-.98,2.76-2.89,2.87Zm7.35-9.23c-.24-.1-.5-.41-.55-.67-.07-.42,.32-.5,.65-.47,.39,.03,.5,.33,.53,.67-.03,.41-.31,.61-.63,.47Zm8.14,9.96c-1.03,.08-1.55-.46-1.54-1.47,.01-.87,.59-1.3,1.36-1.5,.88,.11,1.44,.61,1.46,1.44,.02,.79-.36,1.46-1.28,1.53Zm4.07-6.81c-.47,.09-.87-.08-.77-.61,.07-.41,.44-.68,.9-.7,.34,0,.65,.07,.67,.49-.08,.48-.37,.74-.8,.82Zm4.09,6.55c-.94-.05-1.41-.8-1.28-1.75s.56-1.69,1.48-1.71c1.33,.09,1.46,1.08,1.49,1.76,.05,.98-.66,1.75-1.69,1.7Zm16.41-2.85c-.65,1.41-1.32,1.4-2.01,.03-.49-.38-.99-.75-1.49-1.13-.73-.13-1.27-.33-.38-1.05,.28-1.52,.75-2.95,2.62-3.03,1.27-.05,2.17,.66,2.63,1.84,.6,1.54-.3,2.48-1.37,3.34Z"/>
      <path class="cls-8" d="M39.37,78.12h0s.08,.03,.12,.04c-.04-.01-.08-.03-.12-.04Zm-9.98-19.49h-.01c.21,.64,.41,1.28,.61,1.93-.19-.65-.39-1.29-.6-1.93Z"/>
      <path class="cls-6" d="M109.8,53.76c-.13-.7-.41-1.38-.69-2.32-.69,1.75,.26,3.42-.8,4.78-.03,.49-.06,.99-.09,1.49-.82,2.72-1.02,5.66-2.89,8.01-.01,.4-.09,.77-.47,1-.91,3.7-3.14,6.68-5.46,9.54-2,2.46-4.39,4.61-6.61,6.9-.31,.69,.12,2.18-1.54,1.43-.15,.01-.29,.04-.43,.08-.19,.16-.38,.33-.58,.49-2.21,.54-3.93,2.05-5.93,3-1.69-.05-3.1,.73-4.49,1.53-.35,.15-.69,.3-1.03,.45-2.81,.43-5.7,.27-8.46,1.06h-3.51c-.67,.73-.86,.23-1-.4-9.34-.33-17.06-4.27-23.74-10.57-.1-.1-.2-.2-.3-.31-.2-.21-.39-.43-.59-.64-.2-.21-.4-.41-.63-.59-.17-.14-.35-.26-.54-.35-.08-.03-.16-.07-.25-.1-.09-.03-.18-.06-.28-.08-.04-.01-.08-.02-.12-.03h0c-.15-.16-.28-.3-.43-.45-2.27-3.82-4.91-7.42-6.89-11.42-.45-.91-.82-1.86-1.15-2.81-.33-.96-.61-1.92-.91-2.89-.2-.65-.4-1.29-.61-1.93l-.21,.02h-.21s-.01,0-.01,0c-.07,.04-.14,.08-.2,.13-.06,.05-.12,.11-.17,.16-.12,.11-.22,.24-.32,.36-.11,.12-.23,.23-.36,.31s-.29,.13-.48,.14c-.01,.81-.02,1.63-.03,2.45,.07,1.86-.48,3.76,.39,5.57-.03,.66-.05,1.32-.08,1.98h.06c.59,.25,.61,.57,.12,.96-.09,.56-.03,1.08,.38,1.51,.21,.16,.41,.31,.61,.47,.67,.15,1.26,.33,.42,1.07,.05,.32,.11,.64,.16,.96,.12,.16,.24,.33,.36,.5l.02,.02c1.67,.34,.8,1.64,.96,2.55,.21,.47,.42,.94,.63,1.41,.13,.17,.26,.33,.39,.5l.03,.04c.14,1.04,.52,1.94,1.45,2.52-.01,.31-.02,.61-.04,.92,.13,.18,.27,.37,.4,.56,.25,.15,.49,.31,.74,.47,.38,.25,.47,.62,.43,1.05,.02,.47,.29,.77,.7,.96,.24,.02,.49,.03,.73,.05,.61-.04,1.18,.08,1.37,.73,.16,.54-.31,.64-.73,.7,.12,.18,.24,.35,.36,.54,.95,.89,1.7,2.02,3,2.5,.54-.01,.95,.14,1.01,.76l.02,.19,.18,.06c.53-.06,.83,.15,.85,.7,.36,.25,.72,.5,1.08,.75l.08-.17c.18-.25,.27-.06,.37,.07,.48,.22,.96,.44,1.44,.66,.26-.41,.47-.92,1.07-.83,.16,.02,.39,.33,.38,.51-.02,.84-.72,.71-1.26,.81-.01,.11-.04,.21-.11,.3l.06,.14h.15c.11-.04,.18,.01,.2,.12,.4,.54,.99,.76,1.6,.96,1.03,.07,1.91,.39,2.41,1.39l.14,.06c.17-.05,.28,0,.35,.16,.35,.15,.71,.29,1.06,.44-.02-.1,.02-.17,.11-.22,.54-.52,1.16-.64,1.63,.01,.22,.31-.19,.52-.51,.61l-.12,.1c.25,.11,.5,.21,.75,.31,1.68-.25,2.98,1.13,4.61,1.09,.17,.11,.34,.22,.51,.33,.65,.06,1.31,.12,1.97,.18,.27-.15,.61-.49,.81-.43,3.75,1.3,7.62,.82,11.46,.9,.5,.02,.98,.09,1.32,.51,.31-.03,.62-.07,.92-.11,.17-.63,.38-1.15,1.06-.38,.48-.03,.96-.06,1.44-.08,.17-.65,.36-1.21,1.07-.4,.49-.05,.98-.09,1.47-.14,.33-.13,.66-.25,.98-.38l.03-.02c1.19-1.6,1.92-1.73,2.98-.52,.34-.08,.68-.15,1.02-.23v-.71c.08-.71,.21-1.3,1.02-.48,.31-.05,.62-.1,.93-.15,.19,.07,.38,.13,.57,.2,.77-.05,1.4-.42,1.98-.88,.34-.93,1.11-1.12,1.97-1.14,.52-.31,1.05-.62,1.57-.93,.04-.12,.12-.17,.24-.17,.57-.06,.91-.42,1.2-.86,.77,.03,1.19-.42,1.46-1.07,.49-.09,.81-.4,1.05-.81,1.52-.69,2.62-1.84,3.52-3.21l-.13-.12c.05-.29,.11-.59,.16-.88,.62-.28,.95-1.05,1.74-1.06l.15-.06,.02-.16c-.01-.13,.05-.2,.18-.21,.13-.19,.27-.38,.4-.57,0-.3-.02-.61-.03-.92-.35-1.97,.94-2.84,2.43-3.57,.2-.28,.43-.52,.82-.45,.1-.18,.2-.36,.3-.53-.01-.32-.02-.64-.04-.95-.79-.85-.2-.96,.53-1,2.12-3.81,3.19-7.86,3.54-12.23,.32-4.15,.12-8.2-.62-12.26ZM30.88,70.46c-.15-.16-.41-.3-.42-.47s.21-.36,.34-.54c.17,.13,.34,.26,.57,.43-.2,.25-.35,.41-.49,.58Z"/>
      <path class="cls-4" d="M36.8,35.2s0-.01,.01-.02v.02h-.01Z"/>
      <path class="cls-4" d="M38.26,33.61v.03s-.02,.03-.03,.04l.03-.07Z"/>
      <path class="cls-10" d="M93.3,27.94c-.07,3.73-3.07,6.63-6.74,6.83-2.96,.16-5.82-.34-8.57-1.16-7.56-2.27-14.82-1.13-22.16,1.11-3.05,.93-6.35,1.44-9.12-1.24-1.07-1.04-1.19-2.47-1.88-3.65-.31-.54-.64-.95-1.17-1.22,3.27-3.24,7.3-5.2,11.59-6.5,10.01-3.02,19.98-3.06,29.76,1.07l-.06-.06c1.65,.85,3.6,1.15,4.95,2.58,.27,.18,.54,.35,.81,.52,1.08,.25,2.03,.68,2.59,1.72Z"/>
      <path class="cls-13" d="M106.39,80.2c-.01-.32-.02-.64-.04-.95,.18-.34,.35-.67,.53-1,2.12-3.81,3.19-7.86,3.54-12.23,.32-4.15,.12-8.2-.62-12.26-.13-.7-.41-1.38-.69-2.32-.69,1.75,.26,3.42-.8,4.78-.9-1.46-.53-2.98-.25-4.5,.25-1.36,.63-2.73-.22-4.03-.02-.32-.04-.63-.06-.95l.17-.14c2.23,3.26,2.65,7.09,3.14,10.82,1.05,8.1-.2,15.79-4.7,22.78Z"/>
      <path class="cls-2" d="M44.74,104.98c-3.39,1.44-6.68-.65-6.88-4.36,2.4,1.29,4.7,2.73,6.88,4.36Z"/>
      <path class="cls-9" d="M73.89,101.66c-3.73,.35-7.46,.54-11.15-.33-.39-.34-.72-.94-1.32-.26-.37-.07-.75-.14-1.12-.21,0-.21-.02-.43-.02-.64,.27-.15,.61-.49,.81-.43,3.75,1.3,7.62,.82,11.46,.9,.5,.02,.98,.09,1.32,.51,0,.15,0,.31,.02,.46Z"/>
      <path class="cls-13" d="M27.78,67.76c-.03,.66-.05,1.32-.08,1.98-1.49-4-1.46-8.06-.51-12.16,.08,.72,.15,1.44,.23,2.16-.01,.81-.02,1.63-.03,2.45,.07,1.86-.48,3.76,.39,5.57Z"/>
      <path class="cls-13" d="M83.47,99.36c-2.99,1.63-6.22,2.22-9.58,2.3-.03-.15-.03-.31-.02-.46,.31-.03,.62-.07,.92-.11,.43,.09,.8,0,1.06-.38,.48-.03,.96-.06,1.44-.08,.43,.07,.8-.02,1.07-.4,.49-.05,.98-.09,1.47-.14,.41,.07,.76,.01,.98-.38l.03-.02c.87-.11,1.75-.22,2.63-.33Z"/>
      <path class="cls-1" d="M19.35,61.48c-1.43-.13-.68-1.6-1.58-1.8,.04-1.52-.12-3.05,.42-4.51,1.17,.1,1.16,.95,1.16,1.82-.01,1.46,0,2.93,0,4.49Z"/>
      <path class="cls-9" d="M28.96,58.64h-.01c-.07,.04-.14,.08-.2,.13-.06,.05-.12,.11-.17,.16-.12,.11-.22,.24-.32,.36-.11,.11-.23,.22-.36,.31-.13,.08-.29,.13-.48,.14-.08-.72-.15-1.44-.23-2.16,.03-.31,.07-.61,.11-.92,.67-.43,.54-1.03,.36-1.65,.05-.45,.11-.89,.17-1.34,.33,.02,.66,.04,.99,.06h.01c.04,1.63,.08,3.27,.13,4.91Z"/>
      <path class="cls-13" d="M60.3,100.86c-2.55-.18-4.98-.74-7.11-2.24,1.68-.25,2.98,1.13,4.61,1.09,.17,.11,.34,.22,.51,.33,.65,.06,1.31,.12,1.97,.18,0,.21,.01,.43,.02,.64Z"/>
      <path class="cls-13" d="M29.35,52.71c-.03,.18-.07,.35-.16,.52-.02,.06-.05,.12-.09,.18-.08,.11-.17,.22-.28,.32-.33-.02-.66-.04-.99-.06-.11-1.6,.39-3.03,1.27-4.35,.54,.4-.47,1.06,.24,1.43-.1,.64,.09,1.32,.01,1.96Z"/>
      <path class="cls-13" d="M33.29,82.25c-.01,.31-.02,.61-.04,.92-1.53-1.48-2.52-3.25-2.92-5.34l.23-.06h.23c.21,.48,.42,.95,.63,1.42,.13,.17,.26,.33,.39,.5l.03,.04c.14,1.04,.52,1.94,1.45,2.52Z"/>
      <path class="cls-9" d="M105.47,81.85c-.07,.14-.15,.28-.22,.42-.64,.22-.91,.69-.91,1.34-.12,.2-.24,.4-.36,.6-.38,.18-.76,.36-1.14,.54-.35-1.97,.94-2.84,2.43-3.57,.07,.22,.13,.44,.2,.67Z"/>
      <path class="cls-1" d="M129.56,107.79c-.38,1.32-1.61,.79-2.55,.85,.17-.81,.65-1.43,1.25-1.96,.69,.09,1.54,.27,1.3,1.11Z"/>
      <path class="cls-7" d="M67.33,111.38c-1.33,1.12-2.43,.44-3.51-.43,1.21-.21,2.39-.15,3.51,.43Z"/>
      <path class="cls-13" d="M29.83,75.23c-.06,.37-.11,.73-.17,1.09-.89-1.23-1.43-2.57-1.4-4.11,.21,.16,.41,.31,.61,.47-.05,.43,.06,.81,.42,1.07,.05,.32,.11,.64,.16,.96,.12,.16,.24,.33,.36,.5l.02,.02Z"/>
      <path class="cls-9" d="M83.82,99.17c-.05,.18-.16,.25-.35,.19-.88,.11-1.76,.22-2.63,.33,1.19-1.6,1.92-1.73,2.98-.52Z"/>
      <path class="cls-1" d="M11.57,99.66c.11-.96,.5-1.8,1.14-2.52,1.28,1.59,.64,2.31-1.14,2.52Z"/>
      <path class="cls-13" d="M33.88,39.65c-.02,.52-.04,1.04-.07,1.56-.47,.17-.94,.35-1.41,.52,.24-.93,.44-1.89,1.44-2.36-.02,.1,0,.19,.04,.28Z"/>
      <path class="cls-1" d="M13.58,95.11c.27-1.21,.77-2.33,1.5-3.34,.26,1.46,.52,2.91-1.5,3.34Z"/>
      <path class="cls-1" d="M18.25,68.71c-.38-.79-.38-1.62-.22-2.46,.7-.03,1.23,.15,1.29,.99,.06,.81-.11,1.41-1.07,1.47Z"/>
      <path class="cls-13" d="M102.12,86.67c-.23,1-.95,1.57-1.77,2.06l-.13-.12c.05-.29,.11-.59,.16-.88,.62-.28,.95-1.05,1.74-1.06Z"/>
      <path class="cls-13" d="M87.36,97.8c-.65,.8-1.56,1.03-2.52,1.14v-.71c.34-.16,.68-.32,1.02-.48,.31-.05,.62-.1,.93-.15,.19,.07,.38,.13,.57,.2Z"/>
      <path class="cls-7" d="M119.98,117.17c-.28,.82-.88,1.34-1.6,1.77-.14-1.19,.44-1.75,1.6-1.77Z"/>
      <path class="cls-13" d="M32.37,41.8c-.4,.83-.27,1.94-1.27,2.47,.12-.98,.41-1.87,1.27-2.47Z"/>
      <path class="cls-13" d="M49.78,97.15c-.95-.22-1.89-.45-2.41-1.39,1.03,.07,1.91,.39,2.41,1.39Z"/>
      <path class="cls-9" d="M36.89,87.69c-.2-.2-.4-.39-.6-.59-.01-.28-.03-.56-.04-.84,.61-.04,1.18,.08,1.37,.73,.16,.54-.31,.64-.73,.7Z"/>
      <path class="cls-13" d="M45.47,94.24c-.01,.11-.04,.21-.11,.3-.86-.16-1.56-.54-1.97-1.35l.08-.17,.17,.08h.2c.48,.21,.96,.43,1.44,.65,.06,.16,.13,.32,.19,.49Z"/>
      <path class="cls-13" d="M91.31,95.78c-.42,.77-1.18,.99-1.97,1.14,.34-.93,1.11-1.12,1.97-1.14Z"/>
      <path class="cls-9" d="M30.79,77.78h-.23s-.23,.05-.23,.05c-.08-.15-.16-.3-.24-.45,.13-.28,.03-.46-.25-.55-.06-.17-.12-.34-.18-.51,.06-.36,.11-.72,.17-1.09,1.67,.34,.8,1.64,.96,2.55Z"/>
      <path class="cls-13" d="M30.31,46.11c-.01,.8-.32,1.48-.87,2.05-.2-.89,.17-1.54,.87-2.05Z"/>
      <path class="cls-7" d="M61.8,110.75c-.83,.61-1.57,.8-1.97-.46,.71-.08,1.4-.07,1.97,.46Z"/>
      <path class="cls-11" d="M35.77,36.46c-.03,1.08-.17,2.08-1.53,2.27,.2-.97,.7-1.73,1.53-2.27Z"/>
      <path class="cls-7" d="M124.47,111.67c-.13,.71-.51,1.22-1.16,1.53-.07-.86,.06-1.56,1.16-1.53Z"/>
      <path class="cls-1" d="M18.36,92.2c-.16-.33-.37-.59-.31-.69,.15-.24,.39-.53,.65-.59,.44-.1,.54,.28,.38,.59-.12,.24-.41,.4-.72,.69Z"/>
      <path class="cls-11" d="M38.26,33.61v.03c.08,1.04-.44,1.53-1.45,1.56h-.01s0-.01,.01-.02c.17-.8,.68-1.29,1.43-1.56t.02-.01Z"/>
      <path class="cls-13" d="M103.98,84.21c-.04,.74-.44,1.2-1.11,1.46,0-.3-.02-.61-.03-.92,.38-.18,.76-.36,1.14-.54Z"/>
      <path class="cls-13" d="M27.66,55.01c.18,.61,.31,1.22-.36,1.65-.32-.65-.14-1.18,.36-1.65Z"/>
      <path class="cls-5" d="M60.77,11.06c-.42,.4-.89,.55-1.46,.4,.29-.86,.79-.93,1.46-.4Z"/>
      <path class="cls-5" d="M77.84,11.37c-.55,.2-1.03,.07-1.47-.29,.61-.53,1.12-.51,1.47,.29Z"/>
      <path class="cls-7" d="M58.83,110.19c-.77,.78-1.26,.61-1.5-.43,.57-.11,1.06,.08,1.5,.43Z"/>
      <path class="cls-7" d="M111.82,33.19c-.6-.3-.92-.81-1.07-1.44,1.02-.02,1.07,.69,1.07,1.44Z"/>
      <path class="cls-13" d="M104.34,83.62c0-.65,.27-1.12,.91-1.34-.04,.63-.26,1.13-.91,1.34Z"/>
      <path class="cls-7" d="M27.85,103.1c-.34,.58-.56,1.46-1.49,.62,.39-.46,.87-.7,1.49-.62Z"/>
      <path class="cls-13" d="M61.42,101.07c.59-.67,.93-.08,1.32,.27-.51,.24-.93,.08-1.32-.27Z"/>
      <path class="cls-7" d="M117.58,119.76c-.25,.55-.65,.94-1.19,1.2-.08-.88,.32-1.28,1.19-1.2Z"/>
      <path class="cls-7" d="M31.84,101.26c-.1,.6-.22,1.17-.97,.5,.22-.36,.53-.57,.97-.5Z"/>
      <path class="cls-1" d="M11.1,102.24c-.12,.46-.55,.4-.9,.45-.03-.43,.06-.81,.42-1.09,.24,.15,.59,.26,.48,.64Z"/>
      <path class="cls-13" d="M105.47,81.85c-.07-.23-.13-.45-.2-.67,.2-.28,.43-.52,.82-.45,.12,.55-.17,.88-.62,1.12Z"/>
      <path class="cls-4" d="M90.71,26.22c-.27-.17-.54-.35-.81-.52,.55-.26,.73,.05,.81,.52Z"/>
      <path class="cls-7" d="M24.85,104.36c-.2,.82-.76,.84-1.41,.65,.33-.52,.81-.71,1.41-.65Z"/>
      <path class="cls-13" d="M34.39,84.2c-.02,.15-.06,.29-.12,.44-.44-.15-.75-.38-.62-.91,.25,.15,.49,.31,.74,.47Z"/>
      <path class="cls-7" d="M20.35,106.32c-.17,.83-.73,.88-1.41,.69,.32-.52,.8-.75,1.41-.69Z"/>
      <path class="cls-7" d="M90.82,106.34c-.18,.81-.73,.86-1.4,.69,.33-.51,.79-.75,1.4-.69Z"/>
      <path class="cls-5" d="M80.33,11.84c-.33-.07-.65-.14-.98-.21,.46-.56,.76-.36,.98,.21Z"/>
      <path class="cls-5" d="M57.8,11.64c-.33,.07-.66,.15-.98,.22,.21-.57,.5-.8,.98-.22Z"/>
      <path class="cls-13" d="M36.29,87.1c-.48-.1-.79-.35-.77-.89,.24,.02,.49,.03,.73,.05,.01,.28,.03,.56,.04,.84Z"/>
      <path class="cls-7" d="M51.85,108.15c-.75,.8-.91,.23-1.02-.44,.43-.07,.79,.03,1.02,.44Z"/>
      <path class="cls-7" d="M119.73,52.24c-.34-.27-.4-.63-.28-1.03,.73,.17,1.07,.45,.28,1.03Z"/>
      <path class="cls-7" d="M85.82,108.35c-.14,.62-.34,1.07-.99,.38,.22-.41,.58-.46,.99-.38Z"/>
      <path class="cls-1" d="M137.99,92.83c.06-.14,.09-.35,.19-.39,.1-.04,.26,.1,.4,.16-.06,.14-.09,.35-.19,.39-.1,.04-.27-.1-.4-.16Z"/>
      <path class="cls-13" d="M42.31,92.44c-.48,.01-.79-.2-.85-.7,.53-.06,.83,.15,.85,.7Z"/>
      <path class="cls-7" d="M118.58,47.14c-.45-.37-.65-.84-.58-1.43,.82,.23,.83,.78,.58,1.43Z"/>
      <path class="cls-13" d="M52.56,98.21l-.12,.1c-.53,.19-.88-.03-1.11-.5-.02-.1,.02-.17,.11-.22,.37,.21,.74,.41,1.12,.62Z"/>
      <path class="cls-13" d="M30.92,44.63c-.16,.35-.31,.7-.47,1.05-.05-.44-.13-.9,.47-1.05Z"/>
      <path class="cls-7" d="M104.43,130.22c-.24,.41-.56,.67-1.06,.65,.13-.58,.56-.67,1.06-.65Z"/>
      <path class="cls-9" d="M27.88,70.7c-.04-.32-.08-.64-.12-.96,.59,.25,.61,.57,.12,.96Z"/>
      <path class="cls-9" d="M41.26,91.49c-.5-.04-.85-.27-1.01-.76,.54-.01,.95,.14,1.01,.76Z"/>
      <path class="cls-11" d="M36.81,35.18v.02c-.01,.53-.21,.91-.81,.96,.07-.5,.32-.84,.81-.98Z"/>
      <path class="cls-7" d="M29.28,102.46c-.21,.67-.72,.7-1.29,.62,.3-.48,.74-.66,1.29-.62Z"/>
      <path class="cls-9" d="M34.82,85.25c-.36-.05-.49-.3-.55-.61,.06-.15,.1-.29,.12-.44,.38,.25,.47,.62,.43,1.05Z"/>
      <path class="cls-12" d="M107.95,46.6l-.17,.14c-.14-.17-.29-.34-.44-.5,.17,0,.33-.02,.5-.04,.18,.09,.21,.23,.11,.4Z"/>
      <path class="cls-13" d="M29.84,76.83c.28,.09,.38,.27,.25,.55-.27-.1-.35-.29-.25-.55Z"/>
      <path class="cls-7" d="M111.49,125.24c-.08,.35-.3,.52-.65,.54,.22-.18,.44-.36,.65-.54Z"/>
      <path class="cls-7" d="M54.84,109.13c-.29,.45-.42,.24-.52-.12,.17,.04,.34,.08,.52,.12Z"/>
      <path class="cls-7" d="M14.79,108.97c-.14,.42-.43,.6-.87,.56,.15-.39,.46-.55,.87-.56Z"/>
      <path class="cls-11" d="M34.25,38.87c-.12,.26-.25,.52-.37,.78-.04-.09-.06-.18-.04-.28,.14-.16,.27-.33,.41-.5Z"/>
      <path class="cls-7" d="M87.31,107.76c-.24,.12-.49,.24-.73,.36,.14-.32,.4-.42,.73-.36Z"/>
      <path class="cls-7" d="M17.35,107.69c-.27,.14-.54,.28-.81,.42,.16-.34,.45-.45,.81-.42Z"/>
      <path class="cls-11" d="M38.79,33.03c-.18,.21-.35,.4-.53,.61-.01,0-.02,.03-.03,.04,0-.02,0-.04,0-.06,.02-.33,.22-.51,.55-.59Z"/>
      <path class="cls-7" d="M89.35,107.03c-.21,.38-.53,.55-.97,.47,.2-.4,.54-.52,.97-.47Z"/>
      <path class="cls-7" d="M97.76,102.54c-.14,.38-.42,.55-.82,.55,.16-.36,.43-.54,.82-.55Z"/>
      <path class="cls-4" d="M84.95,23.12s.06,.06,.06,.06c0,0-.06-.06-.06-.06Z"/>
      <path class="cls-13" d="M37.31,88.33s-.06-.09-.06-.09c0,0,.06,.09,.06,.09Z"/>
      <path class="cls-13" d="M50.27,97.37c-.24,.21-.32,.09-.35-.16,.17-.05,.28,0,.35,.16Z"/>
      <path class="cls-13" d="M93.12,94.68l-.04,.22-.2-.05c.04-.12,.12-.17,.24-.17Z"/>
      <path class="cls-13" d="M45.77,94.8s-.18,.06-.18,.06l-.02-.19c.11-.03,.18,.02,.2,.13Z"/>
      <path class="cls-13" d="M102.49,86.44h-.2c-.01-.12,.05-.19,.18-.2l.02,.2Z"/>
      <path class="cls-7" d="M104.71,10.56c-.75,.2-1.29,.05-1.4-.84,.63,.01,1.07,.34,1.4,.84Z"/>
      <path class="cls-1" d="M56.91,.93c-.78,.55-1.69,.46-2.57,.5,.52-1.9,1.5-1.42,2.57-.5Z"/>
      <path class="cls-3" d="M55.65,122.79c-.2,1.49-.98,2.76-2.89,2.87-1.38,.08-3.5-1.87-3.31-3.1,.25-1.73,1.4-2.76,3.12-2.97,1.58-.19,3.01,1.25,3.08,3.2Z"/>
      <path class="cls-3" d="M92.82,123.28c-.67,.01-1.34,.02-2.01,.03-.49-.38-.99-.75-1.49-1.13-.12-.35-.25-.7-.38-1.05,.28-1.52,.75-2.95,2.62-3.03,1.27-.05,2.17,.66,2.63,1.84,.6,1.54-.3,2.48-1.37,3.34Z"/>
      <path class="cls-3" d="M78.1,124.43c.05,.98-.66,1.75-1.69,1.7-.94-.05-1.41-.8-1.28-1.75s.56-1.69,1.48-1.71c1.33,.09,1.46,1.08,1.49,1.76Z"/>
      <path class="cls-3" d="M69.53,124.86c.02,.79-.36,1.46-1.28,1.53-1.03,.08-1.55-.46-1.54-1.47,.01-.87,.59-1.3,1.36-1.5,.88,.11,1.44,.61,1.46,1.44Z"/>
      <path class="cls-7" d="M29.81,114.82c.01-.09,.01-.17,.02-.26-.01-.11-.01-.23-.01-.36,.01,.13,.01,.25,.02,.37-.01,.08-.02,.16-.03,.25Z"/>
      <path class="cls-7" d="M73.12,118.76c-.08,.48-.37,.74-.8,.82-.47,.09-.87-.08-.77-.61,.07-.41,.44-.68,.9-.7,.34,0,.65,.07,.67,.49Z"/>
      <path class="cls-7" d="M60.74,115.96c-.03,.41-.31,.61-.63,.47-.24-.1-.5-.41-.55-.67-.07-.42,.32-.5,.65-.47,.39,.03,.5,.33,.53,.67Z"/>
      <path class="cls-7" d="M92.82,123.28c-.65,1.41-1.32,1.4-2.01,.03,.67-.01,1.34-.02,2.01-.03Z"/>
      <path class="cls-7" d="M89.32,122.18c-.73-.13-1.27-.33-.38-1.05,.13,.35,.26,.7,.38,1.05Z"/>
      <path class="cls-13" d="M108.06,51.72c.25-1.36,.63-2.73-.22-4.03-.02-.32-.04-.63-.06-.95-.14-.17-.29-.34-.44-.5,.17,0,.33-.02,.5-.04-2.72-7.78-7.55-13.88-14.54-18.26-.07,3.73-3.07,6.63-6.74,6.83-2.96,.16-5.82-.34-8.57-1.16-7.56-2.27-14.82-1.13-22.16,1.11-3.05,.93-6.35,1.44-9.12-1.24-1.07-1.04-1.19-2.47-1.88-3.65-.31-.54-.64-.95-1.17-1.22-1.83,1.24-3.66,2.49-4.87,4.42-.18,.21-.35,.4-.53,.61,.08,1.04-.44,1.53-1.45,1.56-.01,.53-.21,.91-.81,.96l-.21,.08-.02,.22c-.03,1.08-.17,2.08-1.53,2.27v.14c-.11,.26-.24,.52-.36,.78-.02,.52-.04,1.04-.07,1.56-.47,.17-.94,.35-1.41,.52l-.03,.07c-.4,.83-.27,1.94-1.27,2.47l-.2,.13,.02,.23c-.16,.35-.31,.7-.47,1.05-.19,.1-.23,.24-.14,.43-.01,.8-.32,1.48-.87,2.05-.38,.31-.48,.7-.34,1.16,.54,.4-.47,1.06,.24,1.43-.1,.64,.09,1.32,.01,1.96-.03,.18-.07,.35-.16,.52-.02,.06-.05,.12-.09,.18-.07,.11-.16,.22-.27,.32,.04,1.63,.08,3.27,.13,4.91h.21s.21-.01,.21-.01h.01c.21,.64,.41,1.28,.6,1.93,.3,.97,.58,1.93,.91,2.89,.33,.95,.7,1.9,1.15,2.81,1.98,4,4.62,7.6,6.89,11.42,.15,.15,.28,.29,.43,.44,.14,.03,.28,.07,.4,.12,.09,.03,.17,.07,.25,.1,.19,.09,.37,.21,.54,.35,.23,.18,.43,.38,.63,.59,.2,.21,.39,.43,.59,.64,.1,.11,.2,.21,.3,.31,6.68,6.3,14.4,10.24,23.74,10.57,.41-.08,.77,0,1,.4h3.51c2.76-.79,5.65-.63,8.46-1.06,.34-.15,.68-.3,1.03-.45,1.39-.8,2.8-1.58,4.49-1.53,2-.95,3.72-2.46,5.93-3,.2-.16,.39-.33,.58-.49,.14-.04,.28-.07,.43-.08,.12-.9,.68-1.33,1.54-1.43,2.22-2.29,4.61-4.44,6.61-6.9,2.32-2.86,4.55-5.84,5.46-9.54,.38-.23,.46-.6,.47-1-.46-1.76,1.43-7.02,2.89-8.01,.03-.5,.06-1,.09-1.49-.9-1.46-.53-2.98-.25-4.5Zm-19.96,13.47c-.09,.08-.16,.18-.21,.29,.66,7.28-3.96,9.66-10.09,11.62-1.09,.35-2.27,.42-3.4,.63-3.35,4.68-7.53,4.88-10.6,.5-4.14-.17-7.78-1.73-10.89-4.35-1.84-1.55-2.63-3.78-2.65-6.22h0c-.32-.66-.63-1.3-.95-1.95-.2-.54-.57-1.04-.33-1.66l.02-.04c-.99-2.98-1.05-5.73,1.81-7.81-.3-5.21,6.75-9.19,10.7-9.51,.74-.06,1.48-.03,2.22-.05-.04-.31-.08-.61-.12-.92,.53-3.32,1.63-4.75,4.26-5.3,3.02-.63,5.07,.76,6.52,3.29,.05,.67,.1,1.34,.15,2.01,.82,.18,2.03-.52,2.28,.99,.5,.17,1,.34,1.5,.51,2.69,1.5,5.76,2.38,7.58,5.23,.78,1.22,1.36,2.39,1.39,3.83,2.91,2.73,2.34,5.77,.81,8.91Z"/>
      <path class="cls-13" d="M29.99,60.56c-.2-.65-.4-1.29-.61-1.93h.01c.21,.64,.41,1.28,.6,1.93Z"/>
      <path class="cls-13" d="M39.49,78.16s-.08-.02-.12-.03h0s.08,.02,.12,.03Z"/>
      <path class="cls-12" d="M28.96,58.64h-.01c-.04-1.64-.08-3.28-.12-4.91,.04,1.63,.08,3.27,.13,4.91Z"/>
      <path class="cls-13" d="M108.22,57.71c-.82,2.72-1.02,5.66-2.89,8.01-.46-1.76,1.43-7.02,2.89-8.01Z"/>
      <path class="cls-9" d="M92.79,83.16c-.31,.69,.12,2.18-1.54,1.43,.12-.9,.68-1.33,1.54-1.43Z"/>
      <path class="cls-9" d="M46.73,93.43c-.02,.84-.72,.71-1.26,.81-.06-.17-.13-.33-.19-.49,.26-.41,.47-.92,1.07-.83,.16,.02,.39,.33,.38,.51Z"/>
      <path class="cls-9" d="M31.37,69.88c-.2,.25-.35,.41-.49,.58-.15-.16-.41-.3-.42-.47s.21-.36,.34-.54c.17,.13,.34,.26,.57,.43Z"/>
      <path class="cls-9" d="M52.56,98.21c-.38-.21-.75-.41-1.12-.62,.54-.52,1.16-.64,1.63,.01,.22,.31-.19,.52-.51,.61Z"/>
      <path class="cls-9" d="M75.85,100.71c-.26,.38-.63,.47-1.06,.38,.17-.63,.38-1.15,1.06-.38Z"/>
      <path class="cls-9" d="M78.36,100.23c-.27,.38-.64,.47-1.07,.4,.17-.65,.36-1.21,1.07-.4Z"/>
      <path class="cls-9" d="M106.88,78.25c-.18,.33-.35,.66-.53,1-.79-.85-.2-.96,.53-1Z"/>
      <path class="cls-9" d="M85.86,97.75c-.34,.16-.68,.32-1.02,.48,.08-.71,.21-1.3,1.02-.48Z"/>
      <path class="cls-9" d="M29.29,73.75c-.36-.26-.47-.64-.42-1.07,.67,.15,1.26,.33,.42,1.07Z"/>
      <path class="cls-9" d="M66.82,91.2c-.67,.73-.86,.23-1-.4,.41-.08,.77,0,1,.4Z"/>
      <path class="cls-9" d="M80.81,99.71c-.22,.39-.57,.45-.98,.38,.33-.13,.66-.25,.98-.38Z"/>
      <path class="cls-9" d="M43.84,93.09h-.2s-.17-.07-.17-.07c.18-.25,.27-.06,.37,.07Z"/>
      <path class="cls-1" d="M124.23,28.32h-.01c-.21-.18-.41-.36-.6-.55-.1-.09-.19-.19-.28-.29,0-.01-.01-.01-.01-.01-.18-.2-.34-.41-.5-.63-.23-.33-.44-.68-.6-1.07,2.02-.21,2.19,1.03,2,2.55Z"/>
      <path class="cls-3" d="M88.1,65.19c-.09,.08-.16,.18-.21,.29-2.22,1.08-4.56,1.31-6.99,1.18-1.58-.08-3.16,.06-4.73-.02-1.43-.08-1.89,.5-1.85,1.88,.09,3.07,.06,6.14,.08,9.21-3.35,4.68-7.53,4.88-10.6,.5,.01-2.98-.11-5.97,.07-8.94,.13-2.21-.64-2.81-2.82-2.8-3.54,0-7.15,.67-10.62-.6-.23-.81-.62-1.49-1.45-1.84l.02-.04c-.99-2.98-1.05-5.73,1.81-7.81,1.4-.03,2.79-.02,4.19-.11,2.84-.18,5.71,.46,8.52-.35,.25,.02,.36-.07,.26-.32h0c.18-2.93,.24-5.85-.05-8.78-.04-.31-.08-.61-.12-.92,.53-3.32,1.63-4.75,4.26-5.3,3.02-.63,5.07,.76,6.52,3.29,.05,.67,.1,1.34,.15,2.01-.02,.31-.03,.63-.05,.95-.06,2.39-.06,4.78-.22,7.17-.11,1.67,.56,2.07,2.15,2.08,3.62,.02,7.27-.41,10.87,.36,2.91,2.73,2.34,5.77,.81,8.91Z"/>
      <path class="cls-6" d="M63.78,55.41h0c-.09,.12-.17,.22-.26,.33-2.81,.81-5.68,.17-8.52,.35-1.4,.09-2.79,.08-4.19,.11-.3-5.21,6.75-9.19,10.7-9.51,.74-.06,1.48-.03,2.22-.05,.29,2.93,.23,5.85,.05,8.77Z"/>
      <path class="cls-6" d="M63.87,69.29c-.18,2.97-.06,5.96-.07,8.94-4.14-.17-7.78-1.73-10.89-4.35-1.84-1.55-2.63-3.78-2.65-6.22h0c.06-.6,.11-1.18,.17-1.77,3.47,1.27,7.08,.6,10.62,.6,2.18-.01,2.95,.59,2.82,2.8Z"/>
      <path class="cls-6" d="M77.8,77.1c-1.09,.35-2.27,.42-3.4,.63-.02-3.07,.01-6.14-.08-9.21-.04-1.38,.42-1.96,1.85-1.88,1.57,.08,3.15-.06,4.73,.02,2.43,.13,4.77-.1,6.99-1.18,.66,7.28-3.96,9.66-10.09,11.62Z"/>
      <path class="cls-11" d="M50.43,65.89c-.06,.59-.11,1.17-.17,1.76-.32-.65-.63-1.29-.95-1.94-.2-.54-.57-1.04-.33-1.66,.83,.35,1.22,1.03,1.45,1.84Z"/>
      <path class="cls-6" d="M87.29,56.28c-3.6-.77-7.25-.34-10.87-.36-1.59-.01-2.26-.41-2.15-2.08,.16-2.39,.16-4.78,.22-7.17,.78,.01,1.55,.03,2.33,.04,.5,.17,1,.34,1.5,.51,2.69,1.5,5.76,2.38,7.58,5.23,.78,1.22,1.36,2.39,1.39,3.83Z"/>
      <path class="cls-12" d="M76.82,46.71c-.78,0-1.55-.03-2.33-.04,.02-.32,.03-.64,.05-.95,.82,.18,2.03-.52,2.28,.99Z"/>
      <path class="cls-11" d="M63.52,55.74c.09-.11,.17-.22,.26-.33,.1,.26,0,.35-.26,.33Z"/>
    </g>
  </g>
</svg>