<?xml version="1.0" standalone="no"?>
<!DOCTYPE svg PUBLIC "-//W3C//DTD SVG 20010904//EN"
 "http://www.w3.org/TR/2001/REC-SVG-20010904/DTD/svg10.dtd">
<svg version="1.0" xmlns="http://www.w3.org/2000/svg"
 width="560.000000pt" height="560.000000pt" viewBox="0 0 560.000000 560.000000"
 preserveAspectRatio="xMidYMid meet">
<metadata>
Created by potrace 1.14, written by Peter Selinger 2001-2017
</metadata>
<g transform="translate(0.000000,560.000000) scale(0.100000,-0.100000)"
fill="#000000" stroke="none">
<path d="M2232 5584 c-12 -8 -22 -21 -22 -29 0 -13 -66 -39 -125 -49 -67 -11
-165 -46 -385 -138 -219 -92 -463 -253 -724 -478 -63 -54 -239 -237 -293 -304
-31 -39 -62 -75 -67 -81 -6 -5 -27 -32 -46 -60 -19 -27 -38 -51 -42 -53 -4 -2
-8 -8 -8 -13 0 -6 -17 -36 -38 -67 -75 -111 -185 -325 -231 -447 -13 -33 -29
-73 -36 -90 -14 -33 -59 -173 -71 -220 -4 -16 -8 -32 -9 -35 -22 -74 -76 -321
-74 -338 1 -4 0 -9 -1 -12 -1 -3 -3 -16 -5 -30 -1 -14 -6 -56 -11 -95 -10 -76
-10 -540 -1 -618 7 -55 78 -349 109 -447 33 -108 98 -280 139 -368 22 -46 39
-90 39 -98 0 -8 5 -14 10 -14 6 0 10 -8 10 -18 0 -9 9 -23 20 -30 17 -10 23
-9 42 10 12 13 33 28 47 33 21 10 22 12 9 26 -14 13 -14 19 -1 52 12 29 22 38
47 42 44 9 62 39 42 70 -9 14 -14 32 -12 42 9 42 19 63 30 63 6 0 22 9 36 20
20 15 25 28 26 67 0 26 8 75 18 107 18 62 125 317 136 326 4 3 9 14 13 25 3
11 13 40 22 64 18 50 15 87 -20 211 -25 87 -30 112 -40 189 -4 36 -2 46 14 57
10 7 21 22 24 33 6 25 -21 64 -39 57 -8 -3 -14 0 -15 7 0 7 -3 21 -5 32 -9 38
-11 203 -3 216 5 9 11 4 21 -17 13 -30 28 -45 38 -39 8 5 4 207 -4 228 -5 9
-14 17 -21 17 -21 0 -22 19 -9 95 22 130 33 172 80 315 30 89 145 345 163 360
3 3 15 21 25 40 42 77 192 265 290 362 104 105 317 278 341 278 7 0 15 4 17 9
9 24 411 220 468 228 19 3 41 10 48 15 6 6 12 8 12 4 0 -3 24 3 52 14 29 11
80 23 113 26 33 4 63 8 68 11 33 19 662 23 662 3 0 -3 41 -10 88 -15 27 -2 54
-8 61 -14 6 -6 27 -12 46 -14 19 -3 51 -11 70 -20 19 -8 51 -18 70 -22 19 -4
69 -23 110 -42 41 -19 102 -46 135 -60 74 -31 207 -104 225 -123 3 -3 23 -17
45 -32 22 -15 54 -39 70 -53 17 -13 35 -28 40 -33 119 -96 206 -174 232 -208
18 -23 42 -45 53 -49 11 -3 20 -11 20 -17 0 -13 59 -89 82 -106 10 -7 18 -18
18 -24 0 -6 8 -18 18 -27 9 -9 23 -27 31 -41 8 -14 45 -78 83 -143 37 -64 70
-129 73 -144 2 -15 13 -39 23 -53 16 -21 48 -102 56 -143 2 -7 6 -20 10 -29 9
-20 35 -128 43 -178 3 -19 9 -39 13 -45 18 -24 31 -482 16 -610 -33 -293 -147
-596 -314 -835 -117 -168 -381 -450 -422 -450 -5 0 -10 -3 -10 -8 0 -10 -136
-112 -150 -112 -5 0 -10 -4 -10 -8 0 -5 -37 -28 -82 -52 -46 -24 -107 -56
-136 -72 -28 -15 -52 -26 -52 -24 0 3 -26 -9 -57 -25 -32 -16 -65 -29 -73 -29
-8 0 -24 -7 -34 -15 -10 -8 -23 -12 -27 -9 -5 3 -22 -2 -39 -11 -16 -8 -30
-13 -30 -10 0 2 -24 -4 -52 -15 -48 -17 -110 -30 -223 -45 -22 -2 -51 -7 -65
-10 -14 -2 -41 -6 -60 -9 -19 -3 -51 -7 -70 -10 -65 -11 -215 -14 -227 -4 -6
5 -54 10 -106 12 -51 1 -100 6 -107 11 -7 5 -34 10 -59 11 -25 2 -55 8 -66 13
-24 11 -143 35 -149 30 -2 -2 -12 4 -22 13 -11 9 -32 19 -49 23 -16 4 -49 15
-72 26 -24 10 -45 19 -48 19 -4 0 -45 19 -93 41 -48 23 -98 46 -112 53 -14 6
-27 14 -30 17 -3 3 -32 23 -65 45 -92 59 -98 63 -125 76 -14 6 -37 23 -52 36
-17 15 -43 26 -72 29 -38 5 -56 0 -115 -31 -39 -20 -71 -33 -71 -30 0 4 -9 -1
-20 -11 -11 -10 -20 -15 -20 -11 0 4 -12 0 -27 -8 -35 -18 -120 -56 -195 -86
-32 -12 -56 -25 -54 -29 2 -3 -8 -7 -24 -8 -15 -1 -48 -13 -73 -27 -25 -15
-52 -26 -60 -26 -8 0 -20 -7 -27 -15 -7 -9 -15 -13 -18 -11 -2 3 -24 -6 -47
-19 -23 -14 -47 -25 -53 -25 -6 0 -31 -13 -55 -30 -25 -16 -52 -30 -60 -30
-27 0 -40 -26 -26 -52 52 -100 347 -411 509 -538 25 -19 47 -37 50 -40 38 -40
262 -185 390 -253 203 -107 443 -199 660 -251 56 -14 181 -38 215 -41 22 -3
50 -7 62 -9 137 -28 562 -28 748 -1 17 3 50 7 75 11 51 6 54 6 135 23 180 37
437 110 459 132 6 5 17 9 25 9 21 0 208 96 291 149 36 22 75 45 88 51 30 13
126 78 182 124 63 52 69 57 125 98 28 20 74 62 103 92 29 31 57 56 62 56 5 0
15 10 21 22 7 13 24 32 38 43 14 11 32 29 41 39 8 11 34 40 58 65 24 25 58 66
75 91 17 25 39 51 49 58 10 7 18 19 18 26 0 7 9 23 19 35 11 12 34 40 51 61
28 34 38 40 71 40 63 0 93 49 44 72 -14 6 -25 15 -25 19 0 11 40 80 60 104 9
11 23 36 30 55 7 19 37 82 66 140 29 58 56 119 60 135 3 17 24 73 45 125 24
60 52 160 74 270 20 96 39 184 41 195 30 118 35 464 9 715 -16 163 -92 480
-150 630 -7 19 -23 62 -36 95 -63 169 -196 409 -329 595 -28 39 -31 48 -34
104 -3 42 -25 66 -61 66 -15 0 -59 40 -136 122 -178 189 -187 198 -198 198 -6
0 -33 23 -59 51 -26 28 -74 69 -107 91 -33 23 -64 46 -70 52 -12 13 -92 66
-100 66 -4 0 -21 11 -38 24 -18 14 -44 29 -59 35 -15 5 -57 28 -93 51 -37 22
-73 40 -80 40 -7 0 -15 3 -17 8 -10 25 -458 216 -458 196 0 -3 -9 0 -20 6 -11
6 -39 13 -62 16 -24 3 -79 14 -123 25 -44 11 -109 21 -145 24 -36 2 -101 8
-145 12 -113 10 -420 10 -485 -1 -30 -5 -92 -10 -138 -11 -46 -2 -86 -6 -89
-9 -3 -3 -20 3 -38 14 -29 18 -33 18 -53 4z"/>
<path d="M2777 4804 c-1 -1 -46 -5 -100 -9 -54 -3 -106 -8 -115 -10 -9 -1 -37
-6 -62 -10 -273 -42 -547 -157 -680 -285 -23 -22 -44 -40 -47 -40 -11 0 -108
-77 -138 -110 -16 -18 -51 -54 -77 -79 -27 -26 -48 -50 -48 -54 0 -4 -8 -15
-17 -25 -47 -49 -83 -98 -83 -112 0 -8 -18 -35 -40 -60 -22 -25 -40 -55 -40
-66 0 -12 -6 -24 -14 -27 -8 -3 -21 -28 -31 -56 -9 -28 -21 -51 -26 -51 -5 0
-9 -8 -9 -19 0 -10 -11 -34 -25 -54 -13 -20 -20 -39 -15 -42 6 -4 3 -16 -5
-29 -9 -13 -15 -28 -14 -32 1 -5 -8 -30 -20 -56 -12 -27 -24 -76 -26 -114 -3
-37 -10 -73 -16 -80 -6 -7 -10 -26 -9 -41 1 -15 1 -30 0 -33 -1 -3 -3 -16 -5
-30 -2 -14 -6 -36 -10 -50 -23 -86 -7 -315 27 -398 6 -15 12 -43 13 -62 2 -19
7 -46 13 -60 11 -29 12 -33 12 -64 0 -13 11 -40 25 -60 14 -21 27 -46 28 -57
2 -11 9 -25 15 -31 7 -7 12 -20 12 -30 0 -31 49 -126 90 -173 22 -26 37 -51
34 -56 -3 -6 2 -13 13 -15 10 -3 24 -17 31 -33 13 -28 186 -211 201 -211 5 0
28 -18 51 -40 23 -22 46 -40 51 -40 5 0 26 -15 46 -34 21 -18 50 -39 64 -47
83 -44 109 -60 116 -72 4 -7 37 -24 73 -37 36 -13 68 -28 72 -33 3 -6 14 -11
25 -12 10 0 51 -17 90 -37 71 -35 125 -51 227 -63 27 -3 57 -10 66 -15 9 -5
25 -9 36 -9 10 1 37 -3 59 -7 75 -14 471 -6 543 11 12 3 30 7 40 9 60 13 110
30 168 56 36 17 74 30 84 30 23 0 87 27 95 40 3 5 13 10 22 10 8 0 29 10 46
22 18 13 33 22 35 20 7 -7 24 2 63 33 24 19 50 35 57 35 6 0 12 5 12 12 0 6 3
8 7 5 3 -4 16 2 27 12 12 11 26 20 31 21 6 1 26 16 45 33 19 18 55 45 79 62
24 16 58 49 75 72 17 23 39 45 49 48 9 4 26 24 37 44 10 21 33 51 50 67 16 16
30 34 30 41 0 7 11 24 25 39 14 15 23 34 20 41 -2 8 -1 12 4 8 5 -3 23 23 41
57 17 35 48 95 68 133 21 39 44 86 51 105 7 19 17 44 22 55 14 33 38 125 33
125 -3 0 0 8 5 18 8 15 12 39 27 157 5 37 5 237 0 285 -2 19 -7 54 -10 78 -3
23 -8 61 -11 84 -9 65 -35 177 -52 217 -9 20 -15 38 -16 41 0 3 -10 20 -23 39
-13 19 -21 38 -18 43 3 4 1 8 -4 8 -5 0 -12 12 -15 28 -14 72 -116 258 -203
372 -67 88 -222 240 -244 240 -5 0 -10 4 -10 8 0 5 -24 24 -52 43 -29 18 -63
46 -76 61 -12 14 -38 32 -57 38 -19 6 -35 16 -35 21 0 5 -5 9 -11 9 -6 0 -24
10 -41 21 -67 48 -341 151 -463 174 -93 18 -153 26 -221 30 -43 3 -94 7 -112
8 -18 1 -34 2 -35 1z"/>
<path d="M763 1949 c-6 -6 -9 -18 -6 -26 5 -12 9 -11 24 3 10 9 16 21 13 25
-7 12 -18 11 -31 -2z"/>
<path d="M5560 1890 c0 -5 5 -10 10 -10 6 0 10 5 10 10 0 6 -4 10 -10 10 -5 0
-10 -4 -10 -10z"/>
</g>
</svg>
